<?xml version="1.0" standalone="no"?>
<!DOCTYPE svg PUBLIC "-//W3C//DTD SVG 20010904//EN"
 "http://www.w3.org/TR/2001/REC-SVG-20010904/DTD/svg10.dtd">
<svg version="1.0" xmlns="http://www.w3.org/2000/svg"
 width="948.000000pt" height="1115.000000pt" viewBox="0 0 948.000000 1115.000000"
 preserveAspectRatio="xMidYMid meet">

<g transform="translate(0.000000,1115.000000) scale(0.100000,-0.100000)"
fill="#000000" stroke="none">
<path d="M5255 10370 c-132 -4 -267 -11 -300 -14 -418 -50 -722 -182 -896
-389 -61 -72 -119 -175 -148 -260 l-18 -52 -69 -6 c-38 -3 -85 -14 -104 -24
-54 -28 -166 -149 -260 -280 -47 -66 -99 -129 -117 -141 -55 -37 -216 -57
-500 -62 -141 -2 -314 1 -390 7 -194 16 -808 75 -1193 116 -439 46 -641 63
-860 70 -102 3 -233 8 -293 11 l-107 6 0 -50 c0 -47 2 -51 27 -56 16 -3 154
-12 308 -21 154 -8 307 -17 340 -20 248 -20 338 -29 470 -45 138 -18 728 -78
1125 -115 223 -21 680 -30 860 -17 250 18 363 70 475 218 33 43 90 111 127
149 60 63 68 69 82 55 15 -14 15 -21 1 -65 -8 -28 -31 -79 -51 -115 -93 -166
-103 -188 -113 -248 -11 -66 -2 -150 23 -218 24 -67 134 -292 169 -347 19 -28
56 -73 83 -99 64 -63 66 -99 9 -183 -50 -72 -71 -83 -115 -60 -28 14 -82 19
-334 26 -166 4 -335 13 -376 18 -41 6 -138 19 -215 30 -403 57 -684 76 -1275
86 -463 8 -782 20 -1118 45 -147 10 -320 22 -384 26 l-118 7 0 -46 0 -45 63
-6 c557 -53 1375 -96 1823 -96 251 0 514 -21 844 -66 391 -54 580 -74 763 -81
92 -3 167 -9 167 -12 0 -4 -46 -31 -102 -60 -190 -100 -298 -184 -298 -231 0
-40 22 -54 77 -47 26 3 88 -1 137 -8 66 -10 317 -15 901 -20 923 -7 1001 -4
1475 65 250 36 358 47 810 80 509 38 788 96 1315 272 274 92 320 112 380 173
79 79 103 149 132 385 24 203 24 849 -1 988 -20 116 -50 206 -83 254 -52 76
-396 267 -604 336 -347 115 -592 152 -1014 152 -132 0 -333 7 -447 15 -265 18
-774 25 -1083 15z m1010 -91 c66 -5 287 -13 490 -18 654 -16 961 -85 1345
-300 19 -11 61 -31 92 -44 108 -48 180 -136 213 -264 37 -143 44 -761 11
-1020 -31 -237 -52 -301 -120 -361 -47 -41 -77 -56 -194 -97 -350 -121 -717
-212 -1027 -254 -82 -12 -166 -23 -185 -26 -19 -3 -179 -10 -355 -15 -222 -7
-366 -16 -470 -30 -658 -91 -540 -82 -1155 -87 -305 -2 -744 0 -975 4 l-420 8
50 37 c28 21 118 72 200 115 109 56 163 91 197 125 83 85 124 204 98 283 -7
20 -40 67 -74 103 -65 70 -126 153 -126 172 0 6 7 22 17 36 17 27 17 34 -22
204 -28 125 -19 184 44 289 104 172 126 282 81 409 l-22 64 22 66 c35 108 86
190 174 278 88 88 175 144 317 205 184 80 374 113 725 129 239 10 890 4 1069
-11z"/>
<path d="M5735 9489 c-26 -48 -54 -212 -61 -344 -5 -104 -3 -125 13 -155 13
-25 26 -36 46 -38 25 -3 27 0 27 30 1 92 22 372 34 438 15 87 13 100 -20 100
-16 0 -28 -10 -39 -31z"/>
<path d="M7865 9475 c-74 -27 -111 -104 -80 -165 18 -34 55 -56 79 -47 20 8
20 31 1 47 -21 18 -19 43 8 67 31 28 53 34 82 21 48 -22 42 -129 -14 -253 -17
-37 -28 -71 -25 -76 30 -49 134 157 134 266 0 117 -81 179 -185 140z"/>
<path d="M5257 9438 c-21 -6 -53 -25 -72 -43 -29 -27 -35 -39 -35 -74 0 -49
20 -83 65 -111 39 -24 71 -26 79 -4 8 22 10 20 -29 44 -38 24 -54 62 -35 85 7
8 30 20 51 27 34 10 42 9 60 -8 31 -28 19 -76 -56 -234 -77 -162 -90 -228 -55
-273 14 -18 30 -27 44 -25 18 3 22 12 28 65 4 39 28 114 63 203 61 152 75 225
55 284 -19 60 -85 86 -163 64z"/>
<path d="M7246 9421 c-39 -43 -84 -265 -73 -367 7 -71 32 -116 60 -112 20 3
22 10 28 103 14 227 21 281 42 328 18 41 19 50 7 58 -23 14 -45 11 -64 -10z"/>
<path d="M6793 9384 c-13 -20 -18 -57 -22 -152 l-6 -125 -38 46 -37 46 21 20
c46 42 -13 71 -64 31 -49 -39 -44 -86 19 -168 l36 -47 -41 -10 c-65 -16 -72
-31 -32 -64 l35 -29 -33 -66 c-34 -70 -35 -106 -1 -106 11 0 27 12 36 28 41
67 108 162 114 162 13 0 26 -24 44 -83 13 -44 21 -57 34 -55 9 2 18 13 20 26
4 26 19 28 43 6 21 -19 49 -12 49 12 0 10 -14 40 -32 67 -20 32 -28 52 -21 54
28 10 94 65 90 76 -3 8 -24 11 -66 9 -76 -4 -77 1 -15 108 44 76 51 110 22
110 -7 0 -26 -16 -41 -35 -16 -20 -32 -33 -38 -30 -13 9 -11 99 3 129 9 22 8
29 -7 46 -25 27 -51 25 -72 -6z"/>
<path d="M4572 9387 c-6 -7 -15 -59 -20 -117 -10 -110 -7 -103 -73 -151 -17
-12 -21 -21 -15 -42 3 -15 13 -27 20 -27 8 0 23 -8 35 -17 19 -16 20 -24 14
-78 -8 -57 -10 -61 -43 -71 -64 -21 -67 -75 -4 -82 39 -5 49 -15 63 -62 10
-34 16 -40 40 -40 45 0 90 67 51 77 -11 3 -20 9 -20 13 0 10 87 29 145 33 l40
2 5 -70 c6 -78 13 -95 39 -95 29 0 40 21 50 93 11 78 15 87 42 87 32 0 59 19
59 41 0 11 -6 21 -12 23 -77 20 -72 15 -80 101 -8 103 -1 115 62 115 37 0 50
4 50 15 0 17 -34 40 -73 49 -34 8 -43 30 -54 131 -8 79 -9 80 -37 83 -39 5
-46 -10 -46 -100 0 -93 -10 -103 -112 -114 -67 -7 -67 -7 -74 21 -4 15 -4 58
0 95 3 38 3 76 0 84 -7 19 -37 21 -52 3z m232 -330 c11 -41 6 -115 -8 -130
-14 -14 -154 -33 -165 -22 -9 10 -12 129 -3 143 9 13 139 42 159 35 6 -3 14
-14 17 -26z"/>
<path d="M7426 9363 c-32 -158 -37 -301 -12 -386 20 -69 34 -70 59 -1 17 44
18 66 10 229 -8 174 -9 180 -30 183 -16 2 -22 -3 -27 -25z"/>
<path d="M6020 9034 c-36 -43 51 -70 193 -60 83 6 140 29 135 56 -5 23 -309
28 -328 4z"/>
<path d="M7913 8943 c-9 -16 -25 -36 -35 -46 -24 -23 -23 -52 2 -77 25 -25 41
-25 74 1 21 16 26 29 26 63 0 40 -21 86 -40 86 -5 0 -17 -12 -27 -27z"/>
<path d="M5242 8708 c-25 -13 -40 -54 -24 -70 30 -30 92 24 71 64 -11 20 -15
21 -47 6z"/>
<path d="M7211 8711 c-36 -10 -50 -37 -29 -57 15 -15 18 -15 47 2 63 37 51 75
-18 55z"/>
<path d="M7492 8694 c-25 -45 28 -84 60 -44 13 17 15 26 8 41 -13 23 -56 25
-68 3z"/>
<path d="M5642 8604 c-25 -18 -29 -59 -6 -68 46 -18 84 7 84 55 0 25 -4 29
-28 29 -15 0 -38 -7 -50 -16z"/>
<path d="M2595 7160 c-321 -29 -566 -144 -837 -393 -70 -65 -129 -117 -132
-117 -2 0 0 17 6 38 6 20 11 71 11 113 1 91 -23 138 -84 169 -72 37 -131 20
-207 -60 -54 -56 -137 -204 -150 -266 l-8 -39 -169 -7 c-319 -14 -533 17 -957
141 l-68 20 0 -73 0 -72 136 -39 c75 -21 138 -43 140 -49 3 -7 -38 -185 -90
-396 -51 -212 -107 -439 -122 -505 -17 -68 -37 -127 -46 -137 -14 -14 -18 -35
-18 -102 l0 -83 103 -22 c56 -11 149 -28 207 -36 197 -28 316 -59 666 -170
271 -87 358 -107 482 -110 101 -3 103 -4 141 -38 52 -47 144 -108 221 -147 63
-32 345 -130 374 -130 7 0 25 -9 40 -21 42 -33 35 -68 -29 -137 -55 -60 -66
-87 -43 -110 17 -17 358 -16 554 3 386 37 937 152 1098 229 100 48 178 121
216 202 20 41 37 64 48 64 29 1 57 32 102 115 24 44 78 136 120 205 97 157
123 208 160 318 59 176 61 391 9 657 -32 161 -77 244 -201 371 -231 239 -542
440 -823 533 -181 60 -622 102 -850 81z m480 -105 c271 -36 368 -66 565 -172
109 -59 258 -157 357 -235 121 -96 272 -248 298 -299 52 -101 105 -389 105
-565 0 -172 -51 -318 -192 -544 -36 -58 -94 -154 -129 -215 -84 -144 -219
-285 -324 -338 -86 -43 -119 -52 -260 -72 -60 -9 -166 -32 -235 -50 -184 -50
-248 -62 -430 -79 -193 -18 -531 -38 -538 -31 -2 2 5 19 16 37 20 33 25 57 23
112 -2 43 -56 91 -127 111 -256 71 -437 147 -519 218 l-40 34 75 35 c193 89
226 193 104 328 l-35 39 50 48 c80 77 81 137 3 224 l-46 52 24 16 c45 28 109
97 115 124 14 55 -3 98 -65 158 -32 31 -68 60 -79 64 -33 10 -25 22 25 39 67
23 170 82 208 121 85 85 68 209 -38 274 -36 23 -191 66 -275 76 l-53 7 43 45
c71 72 218 196 299 250 168 112 327 172 555 207 60 9 403 -3 520 -19z m-1540
-185 c14 -16 17 -30 11 -74 -7 -59 -42 -184 -58 -203 -12 -15 -185 -18 -206
-4 -11 6 -1 31 45 111 97 170 161 222 208 170z m-1070 -384 c33 -8 105 -21
160 -27 55 -7 103 -15 108 -18 4 -4 -17 -108 -47 -232 -30 -123 -72 -300 -95
-394 -22 -93 -48 -210 -57 -260 -31 -167 -31 -168 -67 -162 -18 2 -88 12 -157
21 -143 20 -170 28 -170 54 0 17 38 186 125 562 32 137 61 286 76 380 12 81
23 103 48 96 9 -3 43 -12 76 -20z m700 -56 c44 -5 190 -12 325 -14 207 -3 259
-7 334 -25 50 -12 96 -27 103 -33 24 -20 14 -47 -29 -79 -100 -74 -152 -86
-448 -110 -80 -6 -161 -16 -180 -23 -40 -13 -65 -54 -56 -92 10 -38 58 -52
209 -64 210 -16 372 -66 365 -112 -4 -29 -47 -58 -99 -70 -24 -5 -134 -11
-244 -14 -110 -3 -210 -7 -222 -10 -51 -10 -70 -71 -35 -113 15 -19 33 -24
127 -32 177 -16 384 -60 409 -88 51 -57 -45 -85 -296 -85 -173 -1 -189 -2
-215 -22 -36 -27 -43 -81 -15 -108 17 -15 44 -17 193 -19 166 -2 177 -3 232
-29 96 -45 119 -65 115 -102 -3 -28 -8 -32 -53 -44 -79 -20 -213 -26 -291 -13
-74 13 -137 31 -391 110 -89 28 -199 60 -245 71 -114 29 -137 39 -144 65 -7
28 27 218 101 565 30 140 64 309 75 375 11 65 26 123 33 128 14 10 223 2 342
-13z"/>
<path d="M2785 6388 c-287 -28 -315 -38 -360 -128 -49 -97 -76 -395 -64 -700
10 -239 31 -321 96 -382 61 -58 169 -78 424 -78 189 0 191 -1 218 -108 34
-132 103 -210 205 -233 69 -15 130 1 173 47 46 49 57 116 48 290 l-7 141 28
32 c15 18 51 46 80 63 30 16 65 43 79 60 51 60 22 169 -61 233 l-37 29 33 27
c18 15 41 40 51 56 25 37 25 109 0 150 -22 34 -109 108 -141 118 -11 4 -20 9
-20 13 0 4 30 24 68 44 81 46 93 55 116 89 35 54 -2 102 -124 164 -187 94
-402 114 -805 73z m500 -63 c127 -19 192 -38 283 -81 48 -23 72 -40 72 -52 0
-11 -41 -39 -126 -86 -168 -92 -178 -103 -129 -151 19 -20 34 -25 78 -25 112
0 211 -108 150 -163 -10 -8 -47 -27 -82 -41 -76 -31 -101 -51 -101 -82 0 -29
29 -48 100 -64 74 -18 112 -56 108 -107 -3 -35 -7 -39 -82 -79 -43 -23 -90
-54 -105 -68 l-26 -27 0 -200 0 -201 -28 -24 c-34 -29 -49 -30 -103 -3 -54 25
-82 70 -100 155 -19 91 -44 128 -112 161 -55 27 -62 28 -277 33 -229 7 -264
13 -289 52 -40 64 -49 126 -53 398 -7 402 14 547 85 584 24 12 282 63 407 79
73 10 238 6 330 -8z"/>
<path d="M2208 6178 c-41 -60 -79 -203 -103 -386 -22 -163 -19 -264 9 -344 49
-139 88 -169 139 -108 37 44 42 85 23 213 -24 158 -31 401 -16 512 7 50 13
106 14 125 2 54 -24 49 -66 -12z"/>
<path d="M6050 4014 c-272 -35 -558 -145 -810 -311 -176 -116 -319 -249 -441
-408 -115 -150 -169 -263 -190 -392 -6 -43 -16 -83 -20 -89 -6 -7 -92 -13
-236 -18 -126 -3 -271 -12 -323 -19 -139 -17 -186 -14 -214 12 -30 28 -32 36
-51 204 -22 202 -47 247 -137 247 -144 0 -285 -151 -363 -388 -18 -53 -35 -88
-49 -97 -11 -7 -55 -16 -96 -19 -41 -4 -226 -20 -410 -36 -1446 -128 -2149
-161 -2627 -124 l-83 7 0 -51 0 -50 97 -9 c168 -14 932 -8 1228 11 746 46
1533 113 1841 156 116 16 144 43 189 189 58 186 138 290 245 321 55 16 61 -2
75 -235 10 -154 48 -221 144 -253 43 -15 172 -15 231 0 62 15 567 11 640 -5
48 -11 55 -16 58 -38 3 -22 -4 -29 -40 -46 -132 -62 -287 -115 -383 -131 -58
-10 -110 -23 -116 -29 -19 -19 -15 -84 6 -99 30 -22 130 -17 283 16 78 17 158
30 177 30 40 0 99 -26 90 -39 -9 -15 -211 -96 -363 -146 -174 -57 -202 -85
-151 -149 25 -32 49 -33 130 -2 100 37 190 50 300 43 103 -6 169 -26 169 -51
0 -30 -43 -53 -207 -110 -201 -70 -241 -89 -253 -120 -17 -47 11 -100 59 -111
14 -3 76 4 136 15 61 11 127 20 148 20 75 0 166 -70 137 -105 -7 -8 -63 -31
-124 -50 -90 -29 -157 -41 -356 -65 -381 -46 -680 -87 -860 -120 -219 -39
-314 -50 -436 -50 -81 0 -120 -5 -190 -26 -423 -126 -781 -168 -1759 -204
-285 -11 -494 -22 -755 -40 -80 -5 -190 -10 -245 -10 -152 0 -145 4 -145 -102
l0 -89 68 5 c37 4 168 11 292 16 1726 78 1990 102 2463 221 205 52 304 69 400
69 52 0 127 11 230 35 193 44 437 84 792 130 324 42 460 66 564 101 41 14 80
23 87 20 7 -3 25 -29 40 -58 116 -231 235 -333 464 -402 208 -62 274 -70 555
-70 226 -1 276 2 385 22 250 45 435 100 720 214 328 132 484 223 626 365 156
157 251 304 285 443 10 38 14 118 14 255 0 171 -4 217 -24 315 -66 322 -203
597 -491 985 -154 207 -326 332 -566 409 -289 93 -587 125 -854 90z m515 -149
c373 -61 623 -217 842 -525 229 -323 339 -542 400 -800 20 -85 26 -141 30
-291 8 -282 -8 -349 -127 -508 -114 -153 -241 -266 -379 -336 -73 -37 -400
-164 -536 -209 -276 -91 -524 -135 -799 -143 -207 -6 -300 4 -492 53 -255 65
-314 108 -442 327 -50 86 -51 88 -45 151 3 38 1 77 -6 98 -11 33 -66 91 -132
141 l-24 17 25 17 c141 96 147 236 13 304 -26 13 -50 25 -52 26 -2 2 8 12 23
24 33 26 56 69 56 106 0 35 -31 87 -65 107 -14 9 -37 23 -51 32 l-25 15 40 39
c50 49 69 104 53 158 -16 51 -44 76 -127 109 -64 26 -70 31 -73 59 -4 40 46
177 91 246 108 169 347 401 547 531 225 145 480 237 745 267 107 12 399 4 510
-15z"/>
<path d="M6725 3527 c-62 -29 -159 -117 -221 -200 -64 -86 -117 -193 -110
-223 8 -32 54 -54 131 -61 36 -3 70 -11 75 -18 7 -9 -3 -30 -35 -76 -68 -95
-81 -128 -63 -159 18 -33 67 -49 150 -49 l67 -1 -55 -114 c-30 -63 -54 -121
-54 -129 0 -8 6 -30 14 -49 8 -19 22 -88 31 -154 9 -65 23 -129 30 -141 18
-27 49 -37 74 -23 28 14 202 195 267 276 131 165 204 404 204 664 -1 246 -60
355 -238 438 -104 48 -194 54 -267 19z m209 -82 c104 -27 177 -95 212 -199 14
-41 16 -76 11 -225 -10 -300 -44 -391 -228 -606 -117 -136 -177 -200 -184
-194 -3 4 -13 56 -20 115 -8 60 -20 121 -26 136 -9 23 -4 39 45 138 59 117 67
161 39 192 -13 15 -32 18 -110 18 -51 0 -93 4 -93 9 0 4 8 19 19 32 61 79 95
172 73 205 -11 18 -64 41 -109 49 -24 4 -53 15 -65 25 l-22 17 44 77 c55 97
127 178 182 205 52 26 147 28 232 6z"/>
<path d="M5469 3167 c-105 -30 -185 -100 -240 -213 -79 -161 -45 -342 92 -489
71 -76 122 -109 394 -260 329 -182 386 -208 459 -213 151 -10 203 77 130 219
-13 27 -29 73 -34 101 -17 90 -83 136 -206 145 -41 3 -74 10 -74 14 0 9 44 52
115 113 36 31 38 36 28 59 -13 27 -23 30 -133 42 -86 9 -92 17 -45 66 22 22
59 54 82 70 104 73 84 98 -151 184 -27 10 -74 40 -104 68 -96 87 -213 122
-313 94z m272 -160 c79 -41 174 -82 212 -93 37 -10 67 -22 67 -25 0 -3 -18
-19 -40 -34 -55 -38 -128 -118 -136 -150 -12 -49 44 -78 170 -87 l39 -3 -46
-33 c-50 -35 -87 -87 -87 -121 0 -12 11 -33 25 -46 21 -22 33 -25 100 -25 43
0 90 -6 110 -14 34 -15 37 -20 50 -96 3 -19 16 -59 30 -88 43 -93 28 -130 -47
-118 -62 10 -102 30 -413 207 -297 169 -374 225 -434 316 -81 121 -70 286 25
392 56 62 113 91 180 91 44 0 72 -10 195 -73z"/>
</g>
</svg>
