<?xml version="1.0" standalone="no"?>
<!DOCTYPE svg PUBLIC "-//W3C//DTD SVG 20010904//EN"
 "http://www.w3.org/TR/2001/REC-SVG-20010904/DTD/svg10.dtd">
<svg version="1.0" xmlns="http://www.w3.org/2000/svg"
 width="555.000000pt" height="495.000000pt" viewBox="0 0 555.000000 495.000000"
 preserveAspectRatio="xMidYMid meet">

<g transform="translate(0.000000,495.000000) scale(0.100000,-0.100000)"
fill="#000000" stroke="none">
<path d="M313 4896 c-104 -34 -195 -115 -241 -214 -35 -75 -42 -211 -17 -298
40 -139 101 -224 302 -427 l147 -147 -17 -54 c-14 -45 -17 -101 -17 -369 l0
-316 26 -20 c35 -28 67 -26 101 3 l28 24 3 304 c2 166 7 307 11 311 5 5 50
-19 101 -52 63 -42 102 -61 123 -61 50 0 223 115 378 252 l66 58 746 0 747 0
0 -47 c1 -102 38 -231 109 -371 157 -313 777 -888 1188 -1102 75 -39 87 -37
224 50 52 32 98 55 102 51 4 -4 7 -282 5 -617 -3 -608 -3 -609 -25 -655 -28
-56 -75 -104 -125 -130 -21 -11 -38 -18 -38 -17 -1 2 -2 48 -3 103 -4 126 -28
193 -98 270 -169 184 -443 170 -649 -32 -41 -40 -76 -73 -78 -73 -1 0 -33 31
-70 68 -110 112 -226 165 -361 165 -171 0 -310 -95 -374 -257 -16 -40 -21 -74
-20 -153 l0 -103 -81 0 c-62 0 -88 -4 -111 -19 -16 -10 -226 -182 -465 -382
l-435 -363 -5 357 c-5 354 -5 357 -28 379 -22 23 -26 23 -335 28 -296 5 -314
6 -352 27 -53 28 -99 78 -124 133 -20 44 -21 63 -21 790 0 804 1 782 -54 808
-32 16 -80 2 -96 -29 -6 -11 -10 -312 -10 -783 0 -749 0 -766 21 -821 43 -116
136 -212 246 -256 54 -22 76 -24 323 -29 l265 -5 3 -407 2 -407 26 -20 c57
-44 46 -51 599 409 l517 430 93 0 94 0 56 -74 c69 -92 280 -301 400 -398 124
-98 262 -188 292 -188 32 0 71 21 178 95 193 135 416 345 528 497 39 54 55 68
76 68 14 0 49 6 76 14 165 44 289 180 315 346 6 39 10 323 10 712 l0 647 133
107 c153 124 472 441 568 564 158 204 226 371 236 575 7 153 -10 237 -73 365
-84 170 -236 293 -420 340 -93 24 -223 26 -313 5 -77 -19 -208 -79 -276 -129
-69 -50 -188 -170 -232 -233 -20 -29 -41 -53 -47 -53 -6 0 -26 23 -45 51 -42
62 -153 174 -224 228 -216 164 -493 196 -724 85 -140 -67 -266 -204 -322 -349
-12 -33 -27 -70 -32 -82 l-9 -23 -665 0 c-366 0 -665 2 -665 5 0 3 25 35 55
72 65 80 117 175 140 257 26 87 18 222 -17 298 -36 79 -104 148 -185 189 -64
33 -72 34 -177 34 -96 0 -119 -3 -166 -24 -78 -35 -172 -103 -222 -162 l-42
-50 -44 51 c-52 60 -145 127 -222 160 -68 29 -221 38 -287 16z m247 -175 c68
-31 142 -102 195 -183 56 -87 69 -98 110 -98 41 0 54 11 110 97 54 84 124 150
192 184 66 32 180 33 239 2 149 -79 166 -258 42 -444 -78 -117 -360 -380 -527
-492 -62 -42 -52 -44 -174 46 -221 162 -437 384 -504 514 -35 71 -38 82 -38
164 0 81 2 90 30 130 36 50 67 75 121 95 52 19 147 12 204 -15z m3020 -326
c172 -45 327 -168 447 -355 90 -139 95 -144 136 -144 45 0 59 12 107 93 189
317 467 473 725 406 181 -48 331 -211 366 -400 15 -77 5 -223 -19 -300 -28
-87 -85 -198 -149 -286 -119 -166 -451 -488 -683 -664 -114 -86 -326 -225
-344 -225 -6 0 -56 28 -111 63 -387 242 -863 698 -998 955 -70 135 -92 216
-92 347 0 130 23 209 86 305 118 175 330 258 529 205z m-468 -3034 c70 -33
138 -99 198 -191 78 -119 124 -122 197 -10 95 145 198 219 315 228 89 6 144
-14 196 -73 85 -96 82 -217 -9 -371 -78 -133 -530 -544 -599 -544 -8 0 -59 33
-112 73 -232 174 -435 380 -503 508 -86 164 -57 312 75 382 48 25 63 28 125
25 47 -2 86 -11 117 -27z"/>
<path d="M1030 3267 c-38 -19 -55 -61 -40 -98 7 -16 21 -34 31 -39 10 -6 172
-10 393 -10 l375 0 20 26 c35 45 24 96 -26 122 -32 18 -719 16 -753 -1z"/>
<path d="M2063 3270 c-47 -19 -58 -92 -20 -128 23 -22 29 -22 314 -22 l292 0
20 26 c35 45 24 96 -26 122 -26 14 -546 16 -580 2z"/>
<path d="M1017 2570 c-44 -35 -43 -93 2 -127 12 -9 158 -12 604 -13 l588 0 24
25 c16 15 25 36 25 55 0 19 -9 40 -25 55 l-24 25 -584 0 c-568 0 -585 -1 -610
-20z"/>
<path d="M2559 2561 c-31 -32 -35 -50 -17 -84 24 -46 29 -46 328 -47 236 0
289 3 307 15 44 31 37 111 -13 134 -17 7 -117 11 -300 11 l-276 0 -29 -29z"/>
<path d="M1017 2140 c-44 -35 -43 -93 2 -127 12 -9 112 -12 389 -13 l373 0 24
25 c40 39 32 96 -16 120 -23 12 -92 15 -387 15 -343 0 -360 -1 -385 -20z"/>
<path d="M2045 2135 c-33 -32 -34 -83 -2 -113 l23 -22 763 0 762 0 24 25 c39
38 27 102 -22 124 -17 8 -246 11 -774 11 l-750 0 -24 -25z"/>
<path d="M1030 1717 c-38 -19 -55 -61 -40 -98 7 -16 21 -34 31 -39 11 -6 325
-10 819 -10 l801 0 24 25 c40 39 32 96 -16 120 -24 13 -143 15 -811 15 -611 0
-788 -3 -808 -13z"/>
</g>
</svg>
