<?xml version="1.0" standalone="no"?>
<!DOCTYPE svg PUBLIC "-//W3C//DTD SVG 20010904//EN"
 "http://www.w3.org/TR/2001/REC-SVG-20010904/DTD/svg10.dtd">
<svg version="1.0" xmlns="http://www.w3.org/2000/svg"
 width="948.000000pt" height="1115.000000pt" viewBox="0 0 948.000000 1115.000000"
 preserveAspectRatio="xMidYMid meet">

<g transform="translate(0.000000,1115.000000) scale(0.100000,-0.100000)"
fill="#000000" stroke="none">
<path d="M3377 10370 c-104 -5 -247 -14 -320 -19 -72 -6 -242 -11 -378 -11
-406 0 -629 -33 -974 -142 -216 -69 -578 -268 -630 -347 -69 -104 -93 -248
-101 -600 -9 -405 17 -764 67 -895 27 -75 91 -152 154 -187 93 -52 501 -187
801 -265 293 -76 467 -98 1149 -149 116 -8 334 -33 485 -55 488 -71 580 -75
1539 -61 965 14 1017 15 1037 32 17 14 18 60 2 81 -28 35 -151 118 -266 179
-67 35 -122 67 -122 70 0 3 75 9 168 12 176 7 369 27 728 76 403 55 597 71
885 71 434 0 1117 35 1754 90 61 6 113 10 118 10 4 0 7 21 7 46 l0 47 -122 -7
c-68 -4 -243 -16 -390 -26 -330 -24 -655 -37 -1128 -45 -652 -11 -877 -29
-1515 -121 -22 -3 -173 -9 -335 -14 -223 -6 -304 -12 -330 -23 -48 -20 -68
-10 -115 58 -57 83 -55 120 9 182 64 63 93 107 161 244 139 280 153 394 68
549 -90 163 -123 234 -123 265 0 19 5 37 11 41 15 9 88 -64 180 -183 115 -147
188 -195 346 -228 105 -22 527 -31 783 -16 231 13 983 85 1360 131 277 33 378
41 805 65 154 8 292 18 308 21 25 5 27 9 27 55 l0 50 -122 -5 c-68 -3 -202 -8
-298 -11 -217 -7 -317 -15 -800 -65 -1118 -115 -1294 -130 -1569 -130 -195 0
-309 8 -479 36 -66 10 -98 39 -191 169 -97 136 -206 252 -268 284 -29 15 -61
21 -103 21 -49 0 -62 3 -66 18 -17 53 -60 147 -92 202 -160 270 -534 450
-1017 489 -172 14 -876 21 -1098 11z m853 -80 c406 -15 585 -45 779 -129 142
-61 229 -117 317 -205 88 -88 139 -170 175 -278 l22 -67 -23 -61 c-46 -123
-23 -238 81 -411 69 -115 73 -154 32 -337 -26 -119 -27 -125 -10 -154 9 -16
17 -34 17 -40 0 -17 -62 -102 -126 -170 -34 -36 -67 -83 -74 -103 -26 -80 17
-203 101 -287 32 -32 85 -66 168 -107 120 -60 253 -141 265 -159 8 -13 -1098
-26 -1569 -19 -243 4 -401 11 -485 21 -134 18 -532 72 -590 81 -19 3 -177 10
-350 15 -388 11 -614 38 -940 112 -306 69 -721 200 -798 251 -52 35 -107 109
-121 165 -33 125 -61 441 -61 687 0 216 17 491 35 558 33 128 105 217 213 263
31 14 73 34 92 44 374 211 766 300 1327 300 133 0 297 5 365 10 320 27 761 35
1158 20z"/>
<path d="M3677 9508 c-2 -7 2 -47 9 -88 10 -56 32 -359 34 -463 0 -5 12 -7 28
-5 19 2 32 13 45 38 16 30 18 51 13 150 -6 136 -30 278 -56 338 -15 33 -24 42
-43 42 -14 0 -27 -6 -30 -12z"/>
<path d="M1492 9470 c-63 -39 -79 -131 -41 -243 26 -78 76 -167 94 -167 26 0
25 18 -6 85 -56 124 -62 231 -14 253 29 13 51 7 83 -21 26 -24 28 -49 7 -67
-19 -16 -19 -39 1 -47 24 -9 61 13 79 47 30 59 -5 136 -75 164 -54 21 -88 20
-128 -4z"/>
<path d="M4112 9435 c-45 -20 -66 -72 -59 -146 3 -35 26 -109 62 -198 35 -90
59 -165 63 -204 6 -53 10 -62 28 -65 14 -2 30 7 44 25 35 45 22 111 -55 273
-75 158 -87 206 -56 234 18 17 26 18 60 8 21 -7 44 -19 51 -27 18 -22 4 -63
-30 -80 -35 -18 -42 -28 -34 -49 8 -22 40 -20 79 4 45 28 65 62 65 109 0 55
-37 96 -103 116 -61 18 -73 18 -115 0z"/>
<path d="M2163 9424 c-3 -9 2 -30 12 -47 19 -32 29 -111 43 -322 7 -103 8
-110 29 -113 28 -4 53 41 60 112 10 101 -35 333 -73 371 -20 20 -63 19 -71 -1z"/>
<path d="M2615 9394 c-11 -11 -14 -24 -9 -38 4 -12 9 -47 11 -78 6 -70 -10
-77 -52 -23 -21 29 -30 34 -41 24 -21 -17 -18 -26 31 -113 60 -105 60 -108
-16 -104 -42 2 -63 -1 -66 -9 -4 -11 62 -66 90 -76 7 -2 -1 -22 -21 -54 -18
-27 -32 -57 -32 -67 0 -24 28 -31 49 -12 24 22 39 20 43 -6 2 -13 11 -24 20
-26 13 -2 21 11 34 55 22 73 36 90 55 70 14 -13 69 -94 103 -149 20 -33 52
-37 61 -7 5 14 -4 43 -26 86 l-33 65 34 28 c29 24 32 30 21 44 -7 8 -28 18
-47 22 -19 3 -34 11 -34 16 0 6 13 27 30 48 37 47 52 85 44 116 -8 31 -49 64
-81 64 -30 0 -42 -28 -20 -45 24 -18 21 -35 -17 -79 l-33 -39 -5 125 c-3 97
-8 131 -21 152 -20 30 -48 34 -72 10z"/>
<path d="M4607 9398 c-12 -10 -19 -35 -23 -93 -8 -97 -15 -111 -56 -120 -37
-8 -68 -31 -68 -52 0 -9 15 -13 49 -13 28 0 53 -5 57 -12 10 -16 5 -171 -6
-182 -4 -4 -23 -11 -42 -15 -58 -12 -43 -71 18 -71 30 0 34 -8 45 -87 11 -75
21 -93 55 -93 25 0 32 20 36 115 l3 50 40 -2 c58 -4 145 -23 145 -33 0 -4 -9
-10 -20 -13 -39 -10 6 -77 51 -77 24 0 30 6 40 40 14 47 24 57 63 62 63 7 60
61 -4 82 -33 10 -35 14 -43 71 -6 54 -5 62 14 78 12 9 27 17 35 17 7 0 17 12
20 27 7 27 6 28 -56 73 -18 13 -23 32 -31 120 -11 109 -19 130 -50 130 -24 0
-31 -29 -29 -118 4 -114 10 -105 -67 -97 -105 11 -113 19 -113 120 0 73 -3 86
-19 95 -24 13 -24 13 -44 -2z m192 -329 c27 -6 51 -16 53 -22 6 -18 4 -134 -2
-141 -11 -11 -152 7 -166 21 -15 15 -18 69 -8 122 6 27 11 31 40 31 18 0 55
-5 83 -11z"/>
<path d="M1995 9337 c-4 -30 -5 -121 -3 -203 3 -118 7 -156 21 -181 10 -18 22
-33 27 -33 5 0 17 26 26 57 19 66 21 183 5 288 -20 123 -20 125 -46 125 -21 0
-24 -6 -30 -53z"/>
<path d="M3137 9044 c-14 -15 -6 -30 26 -49 27 -17 50 -20 154 -20 103 0 126
3 140 18 14 13 15 21 7 35 -10 15 -32 17 -166 20 -85 1 -157 -1 -161 -4z"/>
<path d="M1517 8952 c-11 -12 -17 -36 -17 -65 0 -37 5 -49 26 -66 33 -26 49
-26 74 -1 25 25 26 54 3 78 -10 9 -26 30 -36 45 -21 32 -28 33 -50 9z"/>
<path d="M2216 8712 c-10 -17 3 -37 35 -56 24 -14 33 -15 44 -6 31 25 11 55
-42 66 -17 3 -33 1 -37 -4z"/>
<path d="M4191 8702 c-21 -40 41 -94 71 -64 17 17 1 58 -27 70 -33 15 -33 15
-44 -6z"/>
<path d="M1922 8698 c-17 -17 -15 -32 6 -51 25 -23 49 -21 62 3 22 42 -34 82
-68 48z"/>
<path d="M3760 8591 c0 -48 38 -73 84 -55 22 8 20 47 -2 67 -10 10 -33 17 -50
17 -29 0 -32 -3 -32 -29z"/>
<path d="M6610 7163 c-429 -29 -566 -61 -820 -188 -199 -100 -376 -228 -549
-398 -107 -105 -152 -166 -189 -252 -54 -129 -95 -477 -73 -630 24 -171 68
-281 201 -495 42 -69 96 -161 119 -205 45 -84 72 -115 101 -115 11 0 28 -22
48 -63 41 -84 120 -158 217 -203 135 -65 648 -178 995 -220 179 -21 634 -31
655 -14 27 22 16 51 -40 112 -60 64 -70 101 -36 132 10 9 63 30 117 45 257 75
392 141 519 253 46 40 50 42 106 40 109 -4 246 25 509 108 373 118 475 144
685 175 55 8 146 25 203 36 l102 22 0 83 c0 67 -4 88 -18 102 -10 10 -24 45
-31 77 -12 56 -77 325 -187 773 -24 101 -42 187 -39 191 2 5 65 25 140 46
l135 39 0 72 0 73 -67 -20 c-408 -120 -608 -149 -990 -141 l-132 2 -12 43
c-30 114 -132 270 -207 318 -54 34 -97 37 -151 9 -61 -31 -85 -78 -84 -169 0
-42 5 -93 11 -113 6 -21 8 -38 5 -38 -2 0 -54 46 -114 101 -132 123 -206 180
-323 247 -224 129 -505 186 -806 165z m441 -112 c183 -42 342 -117 501 -236
94 -71 266 -230 258 -239 -3 -3 -39 -10 -80 -17 -229 -35 -330 -106 -330 -233
0 -81 122 -187 273 -235 41 -14 47 -26 16 -36 -11 -4 -47 -33 -79 -64 -62 -60
-79 -103 -65 -158 6 -27 70 -96 115 -124 l24 -16 -46 -52 c-78 -87 -77 -147 3
-224 l50 -48 -37 -41 c-117 -130 -87 -232 94 -320 l85 -41 -39 -34 c-83 -71
-265 -148 -516 -217 -31 -9 -70 -28 -87 -42 -52 -44 -59 -122 -16 -187 10 -15
16 -30 13 -32 -6 -6 -336 13 -533 31 -188 17 -252 29 -435 79 -69 19 -174 42
-235 50 -60 9 -130 22 -155 29 -167 50 -309 178 -440 401 -29 50 -82 137 -118
194 -79 127 -135 243 -165 336 -18 59 -22 93 -22 215 0 203 44 450 100 559 24
47 137 163 260 267 150 127 360 257 548 341 111 49 258 82 462 102 61 6 126
13 145 15 91 10 368 -3 451 -23z m1003 -205 c45 -49 161 -244 151 -254 -4 -4
-52 -7 -108 -7 l-102 0 -22 57 c-13 31 -28 91 -35 132 -10 69 -10 77 7 96 30
33 64 25 109 -24z m1063 -348 c6 -7 16 -49 22 -93 17 -105 55 -285 135 -634
37 -157 66 -293 66 -303 0 -24 -24 -34 -95 -42 -33 -4 -102 -14 -154 -22 -78
-13 -95 -14 -106 -2 -7 7 -20 56 -29 108 -15 83 -52 246 -181 780 -18 74 -30
140 -28 146 2 6 50 16 107 22 57 7 134 21 172 31 87 24 80 23 91 9z m-453 -70
c8 -13 17 -50 21 -83 4 -33 20 -123 37 -200 64 -302 137 -668 143 -718 9 -71
-3 -80 -161 -122 -71 -19 -222 -63 -336 -99 -114 -35 -241 -70 -283 -77 -83
-13 -209 -7 -290 13 -48 12 -50 14 -50 48 0 32 5 38 55 68 84 50 111 55 293
57 147 2 170 5 188 21 29 27 22 81 -14 108 -26 19 -42 21 -215 22 -252 1 -342
26 -294 83 26 31 228 74 416 90 112 9 136 24 136 87 0 57 -18 61 -255 68 -115
3 -232 10 -260 16 -59 12 -99 39 -103 69 -3 18 7 26 54 47 81 36 161 52 311
63 183 14 226 37 209 107 -13 52 -15 52 -440 93 -107 10 -187 41 -256 99 -31
27 -33 32 -23 55 10 21 26 28 105 47 79 19 129 23 323 26 191 2 396 14 490 28
11 2 57 4 102 5 75 1 84 -1 97 -21z"/>
<path d="M6144 6395 c-99 -18 -176 -41 -246 -75 -187 -91 -192 -162 -16 -258
37 -20 68 -39 68 -42 0 -3 -20 -16 -45 -29 -25 -13 -63 -43 -84 -66 -74 -81
-73 -155 5 -230 l45 -43 -36 -28 c-96 -73 -113 -197 -35 -262 8 -7 34 -22 57
-33 24 -12 57 -37 74 -57 l32 -36 -8 -90 c-22 -248 13 -356 125 -386 133 -36
269 70 302 235 7 37 20 68 34 82 22 22 30 23 188 23 253 0 358 20 419 78 65
62 86 143 96 376 12 298 -15 609 -61 704 -26 54 -86 99 -141 106 -363 45 -638
56 -773 31z m585 -95 c95 -17 187 -38 203 -46 71 -37 93 -186 86 -585 -4 -235
-7 -271 -26 -330 -12 -36 -30 -73 -39 -81 -33 -29 -96 -38 -270 -38 -189 0
-259 -10 -313 -46 -46 -31 -66 -66 -86 -150 -23 -101 -55 -143 -125 -165 -47
-15 -75 0 -96 49 -13 31 -14 65 -8 208 l7 172 -33 35 c-19 20 -61 50 -94 67
-80 43 -95 58 -95 92 0 43 44 82 110 98 71 16 100 35 100 64 0 31 -25 51 -101
82 -77 31 -99 49 -99 82 0 60 87 122 174 122 36 0 52 5 71 25 49 48 38 60
-130 152 -73 40 -125 74 -125 83 0 20 76 61 170 93 190 65 422 71 719 17z"/>
<path d="M7203 6215 c-3 -9 1 -44 8 -78 21 -93 18 -420 -5 -575 -20 -138 -17
-178 21 -222 52 -63 96 -25 144 123 20 62 21 81 16 200 -6 124 -38 314 -72
430 -16 54 -72 137 -92 137 -7 0 -16 -7 -20 -15z"/>
<path d="M3005 4018 c-202 -22 -466 -93 -597 -159 -193 -97 -297 -196 -478
-454 -234 -334 -348 -574 -412 -867 -19 -88 -22 -135 -22 -323 -1 -186 2 -229
17 -279 41 -132 135 -272 281 -420 144 -145 312 -242 641 -372 288 -113 460
-164 697 -206 106 -19 160 -22 388 -23 241 0 275 2 375 23 143 31 307 84 370
121 105 61 202 175 279 329 15 29 33 55 39 58 7 2 54 -9 104 -25 101 -33 222
-54 613 -106 394 -53 579 -84 795 -136 44 -10 116 -19 161 -19 97 0 189 -16
424 -75 455 -114 676 -134 2310 -210 179 -8 362 -17 408 -21 l82 -6 0 91 0 90
-32 5 c-18 3 -114 8 -213 11 -99 3 -232 10 -295 15 -112 9 -315 19 -855 40
-739 30 -1129 80 -1514 195 -66 20 -106 25 -190 25 -118 0 -255 17 -453 54
-145 27 -386 61 -713 101 -115 14 -246 30 -290 35 -90 12 -298 74 -315 95 -27
33 66 105 135 105 20 0 89 -10 154 -21 103 -19 121 -20 147 -8 38 18 58 61 46
97 -12 37 -56 59 -255 128 -153 53 -207 80 -207 104 0 33 98 60 223 60 80 0
148 -13 247 -47 91 -31 122 -27 141 18 10 27 10 36 -2 58 -12 22 -41 35 -169
78 -165 56 -347 129 -356 144 -3 5 12 17 33 25 46 20 100 15 258 -21 63 -14
141 -25 182 -25 66 0 74 2 89 25 17 26 12 76 -9 93 -7 5 -39 13 -71 17 -89 10
-178 36 -311 90 -132 53 -157 69 -153 99 6 39 82 47 413 41 165 -3 344 -8 397
-11 114 -6 168 11 210 67 38 50 47 89 57 249 5 80 13 153 16 163 16 39 105 9
170 -59 54 -55 96 -137 135 -261 34 -110 57 -141 122 -162 96 -31 1032 -113
1898 -168 299 -18 1086 -25 1243 -10 l87 9 0 49 0 50 -142 -8 c-449 -25 -1101
3 -2158 92 -773 65 -895 77 -916 91 -14 8 -32 44 -52 103 -77 230 -219 381
-359 381 -86 0 -116 -47 -133 -207 -20 -180 -28 -216 -54 -241 -28 -29 -83
-32 -214 -14 -46 6 -189 15 -318 18 -149 5 -237 11 -243 18 -5 6 -13 46 -20
89 -18 128 -80 251 -205 411 -169 216 -389 390 -661 522 -334 161 -659 221
-1000 182z m399 -138 c478 -46 913 -292 1245 -705 94 -118 178 -307 158 -358
-3 -8 -37 -27 -75 -41 -73 -28 -104 -53 -121 -99 -24 -61 -5 -120 56 -173 l35
-31 -43 -25 c-62 -37 -90 -70 -96 -115 -6 -45 11 -84 51 -122 l25 -23 -49 -25
c-125 -62 -133 -195 -19 -282 26 -20 48 -39 48 -43 1 -4 -16 -18 -37 -31 -56
-36 -110 -101 -118 -142 -3 -20 -4 -61 0 -90 6 -51 3 -58 -40 -132 -103 -174
-163 -238 -266 -282 -64 -27 -258 -78 -369 -96 -199 -32 -543 -10 -818 51
-202 45 -655 205 -822 289 -138 70 -265 183 -379 336 -118 158 -136 229 -127
514 8 260 52 431 171 666 97 192 287 475 403 599 73 78 196 169 301 222 232
116 564 168 886 138z"/>
<path d="M2545 3531 c-181 -65 -264 -159 -286 -322 -14 -101 -6 -306 15 -404
47 -219 115 -339 301 -536 123 -131 153 -154 186 -144 34 11 47 46 64 167 8
64 22 133 30 152 8 19 15 42 15 51 0 9 -22 64 -50 122 -27 58 -50 110 -50 114
0 5 29 9 65 9 113 0 168 38 146 102 -6 17 -28 54 -49 82 -74 98 -73 115 8 117
69 1 122 21 140 51 14 26 13 31 -21 100 -70 140 -204 288 -304 334 -61 29
-139 31 -210 5z m232 -92 c55 -26 127 -108 183 -205 l44 -77 -21 -17 c-12 -9
-48 -22 -81 -29 -125 -24 -133 -88 -31 -238 16 -23 29 -44 29 -47 0 -3 -41 -6
-92 -6 -150 0 -161 -31 -73 -209 l55 -112 -15 -47 c-8 -26 -19 -87 -24 -135
-5 -49 -12 -91 -15 -95 -8 -8 -136 130 -234 252 -137 171 -171 277 -179 551
-5 167 -4 184 17 237 24 65 86 134 143 161 86 41 227 49 294 16z"/>
<path d="M3867 3170 c-58 -15 -113 -46 -171 -99 -29 -27 -75 -56 -102 -66
-111 -41 -193 -77 -204 -90 -19 -23 -2 -52 58 -99 31 -24 70 -58 87 -75 36
-39 28 -47 -59 -56 -101 -10 -117 -15 -129 -42 -10 -23 -8 -28 28 -60 84 -73
115 -103 115 -111 0 -5 -33 -12 -74 -15 -122 -9 -189 -56 -205 -143 -5 -27
-23 -78 -40 -114 -36 -75 -39 -113 -12 -156 42 -70 167 -72 297 -7 114 58 530
290 591 330 76 50 171 156 205 230 73 155 45 334 -71 465 -76 85 -214 133
-314 108z m147 -104 c50 -21 114 -83 144 -140 23 -45 27 -63 27 -146 0 -80 -4
-103 -24 -143 -34 -70 -111 -148 -199 -205 -138 -88 -564 -326 -616 -344 -119
-41 -155 -5 -102 100 13 27 27 66 31 88 13 80 15 85 50 100 20 8 67 14 110 14
67 0 79 3 100 25 45 45 23 107 -60 166 l-48 34 39 3 c126 9 182 38 170 87 -8
32 -81 112 -136 150 -22 15 -40 31 -40 35 0 4 25 12 56 19 30 7 125 48 211 92
169 85 214 96 287 65z"/>
</g>
</svg>
