<?xml version="1.0" standalone="no"?>
<!DOCTYPE svg PUBLIC "-//W3C//DTD SVG 20010904//EN"
 "http://www.w3.org/TR/2001/REC-SVG-20010904/DTD/svg10.dtd">
<svg version="1.0" xmlns="http://www.w3.org/2000/svg"
 width="209.000000pt" height="209.000000pt" viewBox="0 0 209.000000 209.000000"
 preserveAspectRatio="xMidYMid meet">

<g transform="translate(0.000000,209.000000) scale(0.100000,-0.100000)"
fill="#000000" stroke="none">
<path d="M440 1937 c-71 -21 -117 -46 -171 -95 -92 -82 -144 -231 -121 -345
15 -75 38 -127 56 -127 25 0 28 19 11 71 -25 75 -17 187 18 256 75 146 231
212 394 168 64 -17 66 -17 80 1 19 25 13 36 -32 58 -49 24 -172 31 -235 13z"/>
<path d="M1020 1799 c-338 -40 -617 -280 -712 -614 -30 -106 -32 -313 -4 -420
63 -240 226 -439 453 -553 97 -49 194 -73 324 -79 139 -7 245 11 364 62 l79
35 26 -24 c30 -28 63 -46 85 -46 9 0 43 25 76 57 50 48 59 61 59 91 0 22 -8
44 -21 58 l-20 22 45 59 c70 92 124 209 151 323 31 135 9 430 -32 430 -13 0
-14 -10 -6 -62 13 -102 8 -276 -11 -347 -24 -89 -67 -181 -120 -254 -79 -111
-67 -112 -185 7 l-102 103 60 89 c89 132 140 274 141 392 0 39 -2 43 -22 40
-20 -3 -25 -13 -35 -68 -23 -131 -86 -265 -165 -354 l-36 -41 -51 50 c-28 27
-51 54 -51 60 0 7 12 22 26 36 76 71 171 242 199 361 69 294 -108 565 -385
591 -30 3 -89 1 -130 -4z m241 -98 c63 -30 124 -84 155 -137 15 -25 24 -47 22
-49 -25 -25 -445 -42 -541 -22 l-38 8 28 51 c38 70 95 132 145 158 56 28 160
24 229 -9z m-409 -65 c-22 -30 -45 -69 -52 -86 -8 -18 -20 -30 -31 -30 -34 0
-138 33 -133 41 17 29 239 147 252 135 1 -2 -15 -29 -36 -60z m-189 -168 c78
-20 88 -25 84 -43 -47 -198 -58 -254 -63 -332 l-7 -93 -158 0 c-90 0 -160 4
-164 10 -17 28 43 242 93 330 35 60 104 150 117 150 5 0 50 -10 98 -22z m812
-82 c13 -100 -17 -229 -77 -333 l-29 -53 -304 0 c-194 0 -306 4 -310 10 -16
26 49 387 73 412 4 4 37 3 72 -3 89 -15 378 -12 470 5 41 7 80 14 87 15 7 0
14 -21 18 -53z m-787 -568 c7 -62 23 -160 37 -217 14 -58 22 -107 18 -111 -5
-3 -45 -17 -91 -29 -98 -28 -95 -30 -172 86 -64 96 -106 210 -124 341 l-6 42
163 0 163 0 12 -112z m596 82 c-29 -30 -30 -30 -62 -14 -44 22 -78 7 -137 -58
-67 -75 -64 -90 43 -201 l87 -92 -135 -8 c-74 -4 -162 -8 -194 -10 l-60 -2
-13 45 c-20 64 -50 223 -57 303 l-7 67 283 0 283 0 -31 -30z m166 -335 l254
-255 -37 -37 -37 -38 -72 72 c-87 85 -102 93 -165 93 -58 0 -76 -12 -184 -124
-61 -63 -80 -77 -96 -72 -12 4 -23 16 -26 27 -4 17 14 42 82 113 102 106 111
120 111 178 0 52 -12 72 -99 160 l-65 68 34 35 c19 19 37 35 40 35 3 0 120
-115 260 -255z m-280 -113 c0 -4 -34 -41 -75 -82 -43 -43 -79 -88 -84 -105
l-8 -30 -46 48 c-56 60 -103 135 -90 148 15 15 303 35 303 21z m-374 -64 c9
-18 34 -59 56 -90 22 -34 33 -58 26 -58 -35 0 -256 125 -244 138 5 4 122 40
138 41 4 1 15 -14 24 -31z m650 -81 l27 -24 -66 -26 c-37 -15 -86 -29 -109
-33 l-43 -6 57 56 c63 63 91 70 134 33z"/>
<path d="M480 1791 c-122 -24 -211 -149 -196 -275 6 -56 21 -78 50 -74 20 3
21 8 18 79 -4 94 16 141 79 185 36 25 52 29 111 30 97 2 120 31 40 54 -41 11
-50 11 -102 1z"/>
<path d="M1575 1610 c-4 -6 13 -34 38 -63 62 -74 93 -133 118 -223 19 -70 21
-96 16 -224 -4 -120 -10 -160 -32 -230 -15 -47 -28 -98 -28 -115 -2 -26 2 -30
25 -33 24 -3 28 2 48 55 74 194 65 477 -19 649 -55 111 -148 214 -166 184z"/>
</g>
</svg>
