<?xml version="1.0" standalone="no"?>
<!DOCTYPE svg PUBLIC "-//W3C//DTD SVG 20010904//EN"
 "http://www.w3.org/TR/2001/REC-SVG-20010904/DTD/svg10.dtd">
<svg version="1.0" xmlns="http://www.w3.org/2000/svg"
 width="857.000000pt" height="240.000000pt" viewBox="0 0 857.000000 240.000000"
 preserveAspectRatio="xMidYMid meet">

<g transform="translate(0.000000,240.000000) scale(0.100000,-0.100000)"
fill="#000000" stroke="none">
<path d="M2540 1200 c0 -1024 2 -1160 15 -1160 13 0 15 136 15 1160 0 1024 -2
1160 -15 1160 -13 0 -15 -136 -15 -1160z"/>
<path d="M336 2019 c-98 -23 -201 -99 -253 -188 -31 -52 -53 -138 -52 -206 1
-98 49 -199 79 -169 8 8 7 19 0 40 -35 92 -31 204 11 286 68 134 234 204 384
163 77 -21 98 -16 93 22 -3 24 -11 30 -58 45 -60 18 -143 21 -204 7z"/>
<path d="M370 1870 c-117 -20 -202 -126 -199 -249 2 -77 11 -96 44 -96 l30 0
-3 76 c-5 94 17 145 80 186 35 23 53 28 107 28 37 1 72 4 79 9 47 29 -49 61
-138 46z"/>
<path d="M830 1866 c-325 -75 -564 -312 -641 -633 -30 -125 -23 -311 16 -433
75 -236 237 -420 461 -521 205 -93 474 -93 680 1 l67 30 38 -35 c55 -50 79
-46 150 22 66 63 76 99 39 146 l-21 26 47 63 c105 143 154 280 161 456 7 155
-16 292 -49 292 -16 0 -19 -5 -14 -22 31 -117 27 -294 -10 -419 -24 -80 -86
-198 -139 -263 l-48 -58 -103 103 c-57 57 -104 106 -104 109 0 3 19 30 41 60
107 141 199 435 143 457 -24 9 -32 -6 -48 -92 -18 -96 -95 -258 -155 -325
l-40 -45 -52 52 c-32 32 -49 56 -45 65 3 7 31 42 61 78 100 120 175 307 175
439 0 181 -100 345 -255 422 -66 32 -76 34 -185 36 -65 1 -139 -4 -170 -11z
m327 -91 c88 -44 195 -167 160 -186 -59 -32 -531 -38 -562 -7 -8 8 42 92 85
141 59 67 110 89 192 84 47 -3 85 -13 125 -32z m-410 -48 c-19 -25 -44 -65
-56 -90 -21 -43 -23 -44 -54 -37 -82 19 -117 32 -112 40 18 30 240 148 253
136 2 -2 -12 -24 -31 -49z m-195 -180 c43 -13 80 -25 82 -28 3 -2 -4 -36 -15
-74 -26 -94 -49 -237 -49 -307 l0 -58 -166 0 -167 0 7 53 c18 137 71 268 152
376 25 33 53 61 62 61 10 -1 52 -11 94 -23z m809 -83 c13 -98 -12 -213 -72
-325 l-32 -59 -309 0 -310 0 7 78 c13 145 61 349 81 345 5 -1 63 -7 129 -13
129 -13 292 -7 410 14 39 7 75 12 80 11 6 -1 13 -24 16 -51z m-791 -508 c0
-66 33 -265 54 -325 9 -24 16 -49 16 -55 0 -10 -103 -41 -170 -52 -66 -11
-199 247 -225 434 l-7 52 166 0 166 0 0 -54z m604 23 c-27 -26 -35 -29 -52
-20 -11 6 -35 11 -52 11 -56 0 -158 -114 -142 -159 3 -9 43 -55 89 -103 47
-48 82 -92 78 -97 -3 -6 -18 -8 -34 -5 -22 5 -220 -7 -325 -19 -15 -2 -23 10
-38 58 -22 74 -45 197 -53 293 l-7 72 283 0 284 0 -31 -31z m159 -336 l256
-258 -31 -32 c-18 -18 -37 -33 -43 -33 -6 0 -40 30 -75 66 -77 78 -105 94
-162 94 -54 0 -77 -15 -173 -117 -76 -82 -99 -95 -123 -71 -23 23 -12 41 77
132 100 103 111 120 111 171 0 51 -18 80 -99 160 l-71 69 37 38 c20 21 37 38
38 38 0 0 116 -116 258 -257z m-345 -190 c-42 -43 -82 -91 -88 -108 l-12 -30
-49 54 c-51 54 -95 128 -84 139 10 11 96 19 205 21 l105 1 -77 -77z m-298 3
c11 -25 37 -65 56 -90 18 -24 34 -47 34 -50 0 -18 -177 71 -235 118 l-30 24
60 17 c33 9 65 18 70 20 20 7 24 4 45 -39z m630 -61 c17 -9 30 -20 30 -26 0
-17 -195 -88 -207 -75 -7 7 117 116 132 116 9 0 29 -7 45 -15z"/>
<path d="M3431 1190 l4 -630 293 0 c330 0 385 7 510 67 152 72 269 229 308
413 19 91 14 267 -11 350 -49 161 -154 289 -295 359 -131 64 -180 71 -519 71
l-294 0 4 -630z m604 306 c172 -73 229 -343 110 -523 -27 -40 -47 -58 -98 -83
-60 -29 -68 -31 -162 -28 l-100 3 -3 315 c-1 173 0 321 3 329 8 20 196 10 250
-13z"/>
<path d="M5542 1673 l3 -148 183 -3 182 -2 0 -480 0 -480 175 0 175 0 0 480 0
480 180 0 180 0 0 150 0 150 -540 0 -541 0 3 -147z"/>
<path d="M1463 1684 c-4 -10 9 -31 35 -57 90 -94 142 -240 142 -401 0 -107
-20 -237 -49 -320 -26 -73 -26 -92 -2 -105 26 -14 43 8 70 89 44 135 51 337
16 487 -20 86 -65 177 -124 249 -54 67 -78 83 -88 58z"/>
<path d="M5016 1498 c-223 -42 -376 -237 -376 -478 0 -137 38 -237 123 -328
90 -94 194 -140 343 -149 158 -10 279 23 391 107 47 36 113 116 113 137 0 5
-61 26 -135 47 l-135 38 -39 -35 c-87 -78 -229 -70 -281 16 -43 70 -57 66 308
69 l327 3 3 84 c5 153 -34 258 -132 357 -99 98 -221 145 -376 143 -47 -1 -107
-5 -134 -11z m198 -242 c32 -13 67 -58 81 -103 l6 -23 -156 0 -156 0 6 23 c30
99 124 143 219 103z"/>
<path d="M6877 1495 c-128 -35 -246 -128 -300 -236 -137 -274 -7 -599 276
-692 47 -15 90 -20 177 -21 171 -1 267 33 368 128 91 85 137 180 148 305 23
245 -121 454 -357 516 -67 18 -247 18 -312 0z m229 -284 c58 -26 86 -76 92
-162 3 -51 0 -81 -12 -114 -44 -114 -178 -145 -262 -61 -69 69 -73 218 -7 297
50 59 117 73 189 40z"/>
<path d="M7550 1491 c0 -5 68 -110 150 -233 83 -122 148 -229 145 -236 -3 -8
-73 -112 -155 -232 -83 -121 -150 -221 -150 -224 0 -4 76 -6 169 -6 l169 0 77
125 c42 69 80 125 85 125 4 0 11 -7 14 -16 4 -9 37 -66 74 -125 l67 -109 173
0 172 0 -104 153 c-58 83 -130 189 -161 234 l-56 82 150 226 c83 123 151 229
151 235 0 7 -57 10 -167 8 l-168 -3 -72 -125 c-40 -69 -75 -124 -78 -123 -4 1
-39 57 -78 125 l-72 123 -168 3 c-102 1 -167 -1 -167 -7z"/>
</g>
</svg>
